<?xml version="1.0" encoding="utf-8"?>
<!-- Svg Vector Icons : http://www.onlinewebfonts.com/icon -->
<!DOCTYPE svg PUBLIC "-//W3C//DTD SVG 1.1//EN" "http://www.w3.org/Graphics/SVG/1.1/DTD/svg11.dtd">
<svg version="1.1" xmlns="http://www.w3.org/2000/svg" xmlns:xlink="http://www.w3.org/1999/xlink" x="0px" y="0px" viewBox="0 0 1000 1000" enable-background="new 0 0 1000 1000" xml:space="preserve">
<metadata> Svg Vector Icons : http://www.onlinewebfonts.com/icon </metadata>
<g><path d="M500,10C229.4,10,10,229.4,10,500.1c0,270.6,219.4,490,490,490c270.6,0,490-219.4,490-490C990,229.4,770.6,10,500,10L500,10z M500,939.8c-242.9,0-439.8-196.9-439.8-439.8C60.2,257.2,257.1,60.2,500,60.2c242.8,0,439.7,196.9,439.7,439.8C939.7,742.9,742.8,939.8,500,939.8L500,939.8z M541.2,283c0-21.9-19-39.6-42.4-39.6c-23.4,0-42.4,17.7-42.4,39.6c0,21.9,18.9,39.6,42.4,39.6C522.2,322.6,541.2,304.9,541.2,283L541.2,283z M682.7,441c0,0-13.1,35.1,0,39.5c15.9,5.3,56.6-13.1,56.6-13.1v171.2c0,0-143.8,54.8-155.5,52.6c-11.8-2.2-155.6-59.2-169.7-52.6c-14.2,6.6-155.5,39.4-155.5,39.4V506.8c0,0,65.4-15,70.7-26.4c6.3-13.8,4.7-46-42.5-26.3c-47.1,19.7-70.7,39.5-70.7,39.5v210.6c0,0,14.2,35.1,42.4,26.3C286.7,721.9,414,678,414,678s150.8,50.5,169.7,52.7c18.8,2.3,197.3-48.6,197.9-65.8c1.9-57.9,2.3-226,0-237C779.3,416.9,710.9,432.2,682.7,441L682.7,441z M498.8,559.5c0,0,155.5-143.7,155.5-269.3c0-125.8-155.5-125.8-155.5-125.8s-155.5,0-155.5,125.8C343.3,415.8,498.8,559.5,498.8,559.5L498.8,559.5z M389.9,273c1.1-4.2,2.7-8.1,4.4-12.1c0.6-1.4,0.9-2.9,1.6-4.2c1.8-3.7,4.2-7,6.6-10.5c1.2-1.6,2.1-3.4,3.4-5c1.9-2.4,4.2-4.4,6.3-6.6c2.4-2.5,4.8-5,7.6-7.4c1.2-1,2.6-1.8,3.9-2.7c4.1-3.2,8.4-6.2,13.1-8.7c0.1-0.1,0.3-0.2,0.5-0.3c11.4-6.2,24.5-10.8,39-13.2c7.3-1.2,14.8-1.9,22.5-1.9h0.1h0.1c7.9,0,15.5,0.7,22.9,1.9c4,0.7,7.6,1.9,11.4,2.9c3.3,0.9,6.7,1.6,9.8,2.7c3.1,1.1,6,2.6,9,4c3.6,1.5,7.2,3,10.5,4.9c1.5,0.9,2.8,1.8,4.2,2.8c21,13.1,36.1,32,41.2,53.9c1.4,5.5,2.1,11.1,2.1,16.8c0,89.8-111.1,215.5-111.1,215.5s-111-125.7-111-215.5C387.8,284.4,388.5,278.6,389.9,273L389.9,273z"/></g>
</svg>