<?xml version="1.0" encoding="utf-8"?>
<!-- Svg Vector Icons : http://www.onlinewebfonts.com/icon -->
<!DOCTYPE svg PUBLIC "-//W3C//DTD SVG 1.1//EN" "http://www.w3.org/Graphics/SVG/1.1/DTD/svg11.dtd">
<svg version="1.1" xmlns="http://www.w3.org/2000/svg" xmlns:xlink="http://www.w3.org/1999/xlink" x="0px" y="0px" viewBox="0 0 1000 1000" enable-background="new 0 0 1000 1000" xml:space="preserve">
<metadata> Svg Vector Icons : http://www.onlinewebfonts.com/icon </metadata>
<g><path d="M500,10C229.4,10,10,229.4,10,500s219.4,490,490,490c270.6,0,490-219.4,490-490S770.6,10,500,10z M500,937.4c-64.5,0-125.8-14.2-181-39.3h362C625.8,923.3,564.6,937.4,500,937.4z M737.6,867V465.7L684.5,555v290H296.4V441.7h320.5l31.5-53h-31.2v-182h-94.5v182h-40.5v-86.8h-94.5v86.8h-47.2v-59h-94.6l-2.3,524.4C134,774.5,62.6,645.5,62.6,500C62.6,258.8,258.8,62.6,500,62.6c241.2,0,437.4,196.2,437.4,437.4C937.4,653.7,857.7,789,737.6,867z"/><path d="M344.2,760.1H636v42.4H344.2V760.1z"/><path d="M591.6,484.2H344.2v42.5h222.2L591.6,484.2z"/><path d="M526.5,597.2l-1.5-0.9l2-3.5l2-16.7l5.8,3.5l3.1-5.3H344.2v42.4h180L526.5,597.2z"/><path d="M617.3,643.3l-78-46.3l-13.2,110.9L617.3,643.3z"/><path d="M823.8,227.9L805.6,217c-16.5-9.8-37.8-4.4-47.6,12.1l-22.6,38l78,46.3l22.6-38C845.7,259,840.3,237.7,823.8,227.9z"/><path d="M517.9,669.9H344.2v42.4h168.6L517.9,669.9z"/><path d="M541.8,712.3H636v-42.4h-34.3L541.8,712.3z"/><path d="M542.4,591.9l78,46.3l187.9-316.1l-78-46.3L542.4,591.9z M791.6,323.9L667.1,533.4c-4.1,7-11.3,10.3-16.1,7.4c-4.7-2.8-5.3-10.8-1.1-17.7l124.5-209.5L791.6,323.9z M756.7,303.1L632.1,512.6c-4.1,6.9-11.3,10.3-16.1,7.4c-4.8-2.8-5.3-10.8-1.2-17.7l124.6-209.5L756.7,303.1z"/></g>
</svg>