<?xml version="1.0" encoding="utf-8"?>
<!-- Svg Vector Icons : http://www.onlinewebfonts.com/icon -->
<!DOCTYPE svg PUBLIC "-//W3C//DTD SVG 1.1//EN" "http://www.w3.org/Graphics/SVG/1.1/DTD/svg11.dtd">
<svg version="1.1" xmlns="http://www.w3.org/2000/svg" xmlns:xlink="http://www.w3.org/1999/xlink" x="0px" y="0px" viewBox="0 0 1000 1000" enable-background="new 0 0 1000 1000" xml:space="preserve">
<metadata> Svg Vector Icons : http://www.onlinewebfonts.com/icon </metadata>
<g><g transform="translate(0.000000,512.000000) scale(0.100000,-0.100000)"><path d="M4690.2,5018.3c-759.3-65.2-1353.7-232-1969.1-554.1c-893.5-465.9-1652.8-1236.7-2105.3-2137.9C263,1622.7,100,920.9,100,111.8c1.9-594.4,70.9-1014.3,258.8-1568.4C953.2-3218.7,2491-4482.2,4352.7-4739.2c1520.5-209,3081.2,333.6,4164.5,1449.5c1549.2,1599.1,1827.3,4034.2,678.8,5941.9C8808.7,3296.5,8197.1,3912,7554.7,4307c-577.1,352.8-1217.5,579.1-1905.9,674.9C5432.2,5010.7,4860.8,5033.7,4690.2,5018.3z M6143.5,1747.3c145.8-151.5,416.1-431.4,600.2-623.1c322.1-339.4,335.5-350.9,410.3-350.9c134.2-1.9,368.1-51.8,481.3-103.5c256.9-117,477.4-327.9,584.8-558c97.8-209,117-316.4,126.5-722.9l9.6-377.7l-47.9-47.9l-49.8-49.9h-460.2H7340l-21.1-99.7c-34.5-153.4-88.2-255-195.6-370c-182.1-193.6-433.3-264.6-680.7-191.7c-276.1,78.6-467.8,281.9-525.4,552.2l-21.1,109.3H4997h-897.3l-11.5-84.3c-32.6-210.9-207.1-442.9-410.3-542.6c-95.9-46-132.3-53.7-281.9-53.7c-153.4,0-186,5.8-297.2,59.5c-69,32.6-159.1,90.1-203.2,128.4c-97.8,86.3-197.5,270.4-212.8,396.9l-11.5,95.9h-467.8h-467.8l-46,47.9l-47.9,46v717.1v715.2l47.9,95.9c95.9,193.7,210.9,237.8,630.8,239.7H2629l444.8,492.8c245.4,270.4,500.4,550.3,567.5,623.1l120.8,128.5h1058.4H5879L6143.5,1747.3z"/><path d="M3348,1129.9c-301-329.8-563.7-611.6-584.8-627c-30.7-21.1-111.2-24.9-383.5-21.1c-322.1,5.8-350.9,3.8-393.1-30.7l-47.9-38.3l-5.7-605.9l-5.8-605.9h393.1h393.1l65.2,101.6c80.5,126.6,184.1,216.7,320.2,279.9c90.1,42.2,130.4,49.8,287.6,49.8c147.6,0,199.4-7.7,276.1-44.1c132.3-59.4,253.1-164.9,329.8-285.7l67.1-101.6h945.3h947.2l47.9,80.5c222.5,375.8,697.9,473.6,1048.8,214.7c69-49.9,134.2-120.8,174.5-187.9l65.2-107.4l383.5,5.8l383.5,3.8l-1.9,239.7c0,283.8-42.2,444.8-157.2,625.1c-164.9,255-391.2,377.7-740.1,402.6c-86.3,5.8-172.6,13.4-193.6,17.3c-21.1,5.7-301.1,285.7-623.1,623.1L5754.3,1732h-929.9h-929.9L3348,1129.9z M4615.4,1463.5l57.5-57.5l-5.8-419.9c-5.7-381.6-9.6-423.7-42.2-460.2c-36.4-38.3-51.8-40.3-609.7-40.3c-546.4,0-573.3,1.9-609.7,38.3c-23,23-38.3,63.3-38.3,103.5c0,57.5,42.2,115,316.4,441c174.5,205.2,339.4,391.1,366.2,412.2c46,36.4,76.7,40.3,279.9,40.3C4557.9,1521.1,4559.8,1521.1,4615.4,1463.5z M5647,1503.8c36.4-21.1,517.7-506.2,697.9-705.6C6465.7,664,6481,604.6,6412,529.8l-40.3-44.1h-707.5c-669.2,0-707.5,1.9-742,36.4c-49.9,49.9-61.4,172.6-53.7,575.2l5.8,331.7l51.8,46c51.8,44.1,65.2,46,370.1,46C5470.5,1521.1,5627.8,1513.4,5647,1503.8z"/><path d="M4036.4,1028.3c-86.3-103.5-170.6-203.2-186-220.5c-26.9-32.6-13.4-34.5,241.6-34.5h272.3v220.5v220.5h-84.4C4195.5,1214.3,4193.6,1212.4,4036.4,1028.3z"/><path d="M5169.5,993.8V773.3h395h395l-209,220.5l-207.1,220.5h-186h-187.9V993.8z"/><path d="M3250.2-672.4c-113.1-40.3-184.1-101.6-235.8-207.1c-86.3-172.6-57.5-335.5,84.4-477.4c118.9-118.9,235.8-149.6,396.9-103.5c312.5,90.1,408.4,446.7,180.2,680.7C3553.2-651.3,3407.5-614.9,3250.2-672.4z"/><path d="M6433.1-697.4c-306.8-157.2-302.9-586.7,9.6-747.8c157.2-82.5,408.4-11.5,517.7,143.8c115,163,84.3,418-67.1,546.5C6755.2-634.1,6596.1-614.9,6433.1-697.4z"/></g></g>
</svg>